<svg width="226" height="338" viewBox="0 0 226 338" fill="none" xmlns="http://www.w3.org/2000/svg">
<g clip-path="url(#clip0)">
<path d="M91.29 304.52C98.55 283.17 119.71 254.91 126.11 246.71C127.24 245.26 126.94 243.13 125.21 242.5C115.09 238.79 102.31 236.88 102.31 236.88C102.31 236.88 101.73 215.64 113.3 202.01C113.62 201.63 162.31 195.38 162.31 195.38C179.28 192.09 183.42 183.72 185.54 170.3L207.43 35.07C207.47 34.85 207.23 34.7 207.04 34.82L178.97 53.85L62 0.050003C61.53 -0.169997 61.07 0.380003 61.37 0.810003L93.36 44.98L51.34 50.32C50.96 50.37 50.78 50.8 51 51.11L76.66 85.23C76.66 85.23 51.84 144.29 52.64 155.62C52.87 158.86 53.46 163.58 58.03 167.29L94.95 192.54C66.55 195.33 67.38 246.71 69.65 254.08C70.84 257.94 87.93 262.84 90.22 263.47C90.16 276.75 88.63 284.5 91.29 304.52Z" fill="#F18E1B"/>
<g style="mix-blend-mode:color-burn" opacity="0.5">
<path opacity="0.5" d="M90.19 265.26C90.29 263.15 90.37 261.11 90.37 259.17C88.54 259.34 72.12 257.53 69.24 252.26C69.36 253.02 69.5 253.64 69.63 254.09C70.82 257.95 87.91 262.85 90.2 263.48C90.2 264.08 90.2 264.67 90.19 265.26Z" fill="#5499C9"/>
</g>
<g style="mix-blend-mode:color-burn" opacity="0.5">
<path d="M126.11 246.72C116.27 253.71 96.83 276.75 91.29 304.52C98.55 283.18 119.71 254.92 126.11 246.72Z" fill="#5499C9"/>
</g>
<g style="mix-blend-mode:color-burn" opacity="0.3">
<path d="M207.05 34.8L178.98 53.83L62 0.0500031L176.95 59.28C177.83 59.73 178.9 59.6 179.64 58.95L207.05 34.8Z" fill="#5499C9"/>
</g>
<g style="mix-blend-mode:color-burn" opacity="0.3">
<path d="M56.7 155.71C56.02 147.55 76.65 85.23 76.65 85.23C76.65 85.23 51.83 144.29 52.63 155.62C52.86 158.86 53.45 163.58 58.02 167.29L68.04 174.08C68.04 174.08 57.42 164.33 56.7 155.71Z" fill="#5499C9"/>
</g>
<g style="mix-blend-mode:color-burn" opacity="0.5">
<path d="M79.2 79.52C79 79.24 55.44 55.41 51.1 50.59C51.07 50.56 51.07 50.52 51.05 50.48C50.89 50.65 50.85 50.9 51 51.11L76.66 85.23L79.2 79.52Z" fill="#5499C9"/>
</g>
<g style="mix-blend-mode:color-burn" opacity="0.5">
<path d="M98.5 44.41L61.47 0.370005C61.43 0.310005 61.41 0.260005 61.39 0.200005C61.26 0.360005 61.23 0.600005 61.38 0.810005L93.37 44.98L98.5 44.41Z" fill="#5499C9"/>
</g>
<g style="mix-blend-mode:color-burn" opacity="0.5">
<path d="M185.99 167.57L207.44 35.06C207.44 35.06 184.87 149.23 175.27 178.13C173.16 184.48 168.45 186.48 167.02 187.14C152.27 193.88 113.25 195.74 110.81 199.15C100.54 213.5 102.31 236.5 102.31 236.5C102.19 230.17 103.93 213.05 113.31 202C113.63 201.62 131.21 199.5 131.21 199.5L162.33 195.36C170.34 194.15 177.43 189.99 180.78 184.98C183.38 181.09 184.61 176.28 185.56 170.28L185.83 168.63L185.99 167.57Z" fill="#5499C9"/>
</g>
<path d="M91.84 76.4C96.19 56.05 116.96 50.47 118.67 57.8C120.61 66.15 105.57 56.12 91.84 76.4Z" fill="#E3680D"/>
<path d="M172.25 99.52C176.9 76.12 155.19 60.02 150.07 66.96C144.24 74.89 166.99 71.94 172.25 99.52Z" fill="#E3680D"/>
<path d="M80.44 207.19L86.61 208.89C86.74 208.93 86.78 208.99 86.76 209.05C86.74 209.12 86.69 209.14 86.59 209.17L81.95 210.33C80.22 210.76 79.13 211.3 78.69 212.89C78.25 214.48 79 215.63 80.19 216.72L85.61 221.67C85.7 221.75 85.73 221.81 85.72 221.87C85.7 221.92 85.66 221.96 85.57 221.98L75.65 224.53L74.43 229L86.14 225.88C88.16 225.34 89.33 224.6 89.76 223.05C90.28 221.16 89.54 219.91 88.17 218.67L83.07 214.05C82.99 213.98 82.96 213.93 82.98 213.87C83 213.8 83.06 213.77 83.16 213.74L90.15 211.8C91.96 211.3 92.98 210.71 93.28 209.15C93.55 207.72 92.55 206.6 90.59 206.06L81.45 203.54L80.44 207.19Z" fill="white"/>
<path d="M34.94 152.01C31.25 148.15 26.06 145.74 20.29 145.74C9.09 145.74 0 154.83 0 166.04C0 177.25 9.09 186.33 20.29 186.33C21.69 186.33 23.06 186.19 24.38 185.92C25.64 185.74 41.22 183.2 45.05 165.64C47.58 154.08 41.35 151.36 34.94 152.01Z" fill="#F18E1B"/>
<g style="mix-blend-mode:color-burn" opacity="0.3">
<path d="M31.33 149.05C28.15 146.97 24.37 145.75 20.29 145.75C9.09 145.74 0 154.83 0 166.04C0 167.15 0.11 168.23 0.28 169.29C1.4 159.81 11.9 143.94 31.33 149.05Z" fill="#5499C9"/>
</g>
<g style="mix-blend-mode:color-burn" opacity="0.5">
<path d="M25.56 181.32C24.12 181.74 22.61 182.04 21.04 182.21C14.21 182.92 7.80997 180.84 3.21997 176.99C6.82997 182.61 13.12 186.33 20.29 186.33C21.69 186.33 23.06 186.19 24.38 185.92C25.64 185.74 41.22 183.2 45.05 165.64C45.23 164.84 45.35 164.09 45.44 163.37C41.01 177.42 26.82 181.02 25.56 181.32Z" fill="#5499C9"/>
</g>
<path d="M193.55 190.81C197.82 187.61 203.34 186.07 209.02 187.02C220.08 188.85 227.56 199.3 225.73 210.35C223.9 221.41 213.45 228.89 202.4 227.06C201.02 226.83 199.69 226.47 198.43 225.98C197.21 225.6 182.26 220.55 181.35 202.6C180.74 190.78 187.33 189.12 193.55 190.81Z" fill="#F18E1B"/>
<g style="mix-blend-mode:color-burn" opacity="0.3">
<path d="M197.59 188.47C201.06 186.94 205 186.35 209.02 187.01C220.08 188.84 227.56 199.29 225.73 210.34C225.55 211.43 225.26 212.48 224.92 213.5C225.36 203.98 217.6 186.61 197.59 188.47Z" fill="#5499C9"/>
</g>
<g style="mix-blend-mode:color-burn" opacity="0.5">
<path d="M198.02 221.25C199.38 221.9 200.82 222.45 202.33 222.86C208.96 224.68 215.6 223.67 220.76 220.62C216.28 225.57 209.47 228.22 202.39 227.05C201.01 226.82 199.68 226.46 198.42 225.97C197.2 225.59 182.25 220.54 181.34 202.59C181.3 201.77 181.3 201.01 181.32 200.28C183.4 214.88 196.82 220.75 198.02 221.25Z" fill="#5499C9"/>
</g>
<path d="M110.444 122.672C116.686 108.748 114.504 94.2126 105.568 90.2067C96.6331 86.2008 84.329 94.2413 78.0863 108.166C71.8436 122.09 74.0263 136.626 82.9615 140.631C91.8967 144.637 104.201 136.597 110.444 122.672Z" fill="white" stroke="#0F6EB4" stroke-width="6.008" stroke-miterlimit="10"/>
<path d="M110.444 122.672C116.686 108.748 114.504 94.2126 105.568 90.2067C96.6331 86.2008 84.329 94.2413 78.0863 108.166C71.8436 122.09 74.0263 136.626 82.9615 140.631C91.8967 144.637 104.201 136.597 110.444 122.672Z" stroke="#0F6EB4" stroke-width="6.008" stroke-miterlimit="10"/>
<path d="M107.8 136.8L83.76 134.66L92.77 154.64L107.8 136.8Z" fill="#F18E1B"/>
<path d="M155.127 140.997C160.74 125.407 157.181 109.85 147.178 106.248C137.175 102.646 124.515 112.363 118.902 127.953C113.289 143.542 116.847 159.1 126.85 162.702C136.853 166.304 149.513 156.586 155.127 140.997Z" fill="white" stroke="#0F6EB4" stroke-width="6.524" stroke-miterlimit="10"/>
<path d="M155.127 140.997C160.74 125.407 157.181 109.85 147.178 106.248C137.175 102.646 124.515 112.363 118.902 127.953C113.289 143.542 116.847 159.1 126.85 162.702C136.853 166.304 149.513 156.586 155.127 140.997Z" stroke="#0F6EB4" stroke-width="6.524" stroke-miterlimit="10"/>
<path d="M83.5699 114.77C83.5699 114.77 88.7099 104.83 96.9399 107.63C100.25 108.76 104.6 114.14 100.59 122.76" stroke="black" stroke-width="5.5255" stroke-miterlimit="10"/>
<path d="M125.49 134.38C125.49 134.38 130.62 122.3 140.49 124.85C144.46 125.87 150.02 131.78 146.1 142.21" stroke="black" stroke-width="6.4784" stroke-miterlimit="10"/>
<path d="M89.22 157.51C88.41 162.86 96.78 189.35 133.92 170.51" stroke="black" stroke-width="4.0917" stroke-miterlimit="10"/>
<path d="M92.64 320.27C130.819 320.27 161.77 317.628 161.77 314.37C161.77 311.112 130.819 308.47 92.64 308.47C54.4606 308.47 23.51 311.112 23.51 314.37C23.51 317.628 54.4606 320.27 92.64 320.27Z" fill="#CDCCCD"/>
<path d="M156.6 141.31L195.45 156.61L191.95 170.11" stroke="#0F6EB4" stroke-width="6.524" stroke-miterlimit="10" stroke-linecap="round"/>
</g>
<defs>
<clipPath id="clip0">
<rect width="226" height="337.66" fill="white"/>
</clipPath>
</defs>
</svg>
